<mxfile host="Electron" modified="2024-07-25T15:01:15.519Z" agent="Mozilla/5.0 (Windows NT 10.0; Win64; x64) AppleWebKit/537.36 (KHTML, like Gecko) draw.io/24.2.5 Chrome/120.0.6099.109 Electron/28.1.0 Safari/537.36" etag="tvT5YvJQ_jFjJjsOFRBl" version="24.2.5" type="device" pages="8">
  <diagram id="HQwCBL1ggfVV_5SzUmb9" name="ecc_decoder">
    <mxGraphModel dx="1802" dy="909" grid="0" gridSize="10" guides="1" tooltips="1" connect="1" arrows="1" fold="1" page="1" pageScale="1" pageWidth="827" pageHeight="1169" math="0" shadow="0">
      <root>
        <mxCell id="0" />
        <mxCell id="1" parent="0" />
        <mxCell id="9kV_0fhqUF1c1HFAQR6I-1" value="&lt;b&gt;&lt;font style=&quot;font-size: 20px;&quot;&gt;ecc_decoder&lt;/font&gt;&lt;/b&gt;" style="rounded=1;whiteSpace=wrap;html=1;" parent="1" vertex="1">
          <mxGeometry x="280" y="350" width="280" height="362" as="geometry" />
        </mxCell>
        <mxCell id="9kV_0fhqUF1c1HFAQR6I-2" value="" style="endArrow=classic;html=1;rounded=0;" parent="1" edge="1">
          <mxGeometry relative="1" as="geometry">
            <mxPoint x="180" y="390" as="sourcePoint" />
            <mxPoint x="280" y="390" as="targetPoint" />
            <Array as="points">
              <mxPoint x="200" y="390" />
              <mxPoint x="250" y="390" />
            </Array>
          </mxGeometry>
        </mxCell>
        <mxCell id="9kV_0fhqUF1c1HFAQR6I-3" value="data_0" style="edgeLabel;html=1;align=center;verticalAlign=middle;resizable=0;points=[];fontStyle=1;fontSize=12;" parent="9kV_0fhqUF1c1HFAQR6I-2" vertex="1" connectable="0">
          <mxGeometry x="-0.1467" y="-3" relative="1" as="geometry">
            <mxPoint y="-13" as="offset" />
          </mxGeometry>
        </mxCell>
        <mxCell id="9kV_0fhqUF1c1HFAQR6I-4" value="" style="endArrow=classic;html=1;rounded=0;" parent="1" edge="1">
          <mxGeometry relative="1" as="geometry">
            <mxPoint x="180" y="429.71" as="sourcePoint" />
            <mxPoint x="280" y="429.71" as="targetPoint" />
            <Array as="points">
              <mxPoint x="250" y="429.71" />
            </Array>
          </mxGeometry>
        </mxCell>
        <mxCell id="9kV_0fhqUF1c1HFAQR6I-5" value="data_1" style="edgeLabel;html=1;align=center;verticalAlign=middle;resizable=0;points=[];fontStyle=1;fontSize=12;" parent="9kV_0fhqUF1c1HFAQR6I-4" vertex="1" connectable="0">
          <mxGeometry x="-0.1467" y="-3" relative="1" as="geometry">
            <mxPoint y="-13" as="offset" />
          </mxGeometry>
        </mxCell>
        <mxCell id="9kV_0fhqUF1c1HFAQR6I-6" value="" style="endArrow=classic;html=1;rounded=0;" parent="1" edge="1">
          <mxGeometry relative="1" as="geometry">
            <mxPoint x="180" y="469.71" as="sourcePoint" />
            <mxPoint x="280" y="469.71" as="targetPoint" />
          </mxGeometry>
        </mxCell>
        <mxCell id="9kV_0fhqUF1c1HFAQR6I-7" value="data_2" style="edgeLabel;html=1;align=center;verticalAlign=middle;resizable=0;points=[];fontStyle=1;fontSize=12;" parent="9kV_0fhqUF1c1HFAQR6I-6" vertex="1" connectable="0">
          <mxGeometry x="-0.1467" y="-3" relative="1" as="geometry">
            <mxPoint y="-13" as="offset" />
          </mxGeometry>
        </mxCell>
        <mxCell id="9kV_0fhqUF1c1HFAQR6I-8" value="" style="endArrow=classic;html=1;rounded=0;" parent="1" edge="1">
          <mxGeometry relative="1" as="geometry">
            <mxPoint x="180" y="509.71" as="sourcePoint" />
            <mxPoint x="280" y="509.71" as="targetPoint" />
          </mxGeometry>
        </mxCell>
        <mxCell id="9kV_0fhqUF1c1HFAQR6I-9" value="data_3" style="edgeLabel;html=1;align=center;verticalAlign=middle;resizable=0;points=[];fontStyle=1;fontSize=12;" parent="9kV_0fhqUF1c1HFAQR6I-8" vertex="1" connectable="0">
          <mxGeometry x="-0.1467" y="-3" relative="1" as="geometry">
            <mxPoint y="-13" as="offset" />
          </mxGeometry>
        </mxCell>
        <mxCell id="9kV_0fhqUF1c1HFAQR6I-10" value="" style="endArrow=classic;html=1;rounded=0;" parent="1" edge="1">
          <mxGeometry relative="1" as="geometry">
            <mxPoint x="180" y="549.71" as="sourcePoint" />
            <mxPoint x="280" y="549.71" as="targetPoint" />
          </mxGeometry>
        </mxCell>
        <mxCell id="9kV_0fhqUF1c1HFAQR6I-11" value="data_4" style="edgeLabel;html=1;align=center;verticalAlign=middle;resizable=0;points=[];fontStyle=1;fontSize=12;" parent="9kV_0fhqUF1c1HFAQR6I-10" vertex="1" connectable="0">
          <mxGeometry x="-0.1467" y="-3" relative="1" as="geometry">
            <mxPoint y="-13" as="offset" />
          </mxGeometry>
        </mxCell>
        <mxCell id="9kV_0fhqUF1c1HFAQR6I-12" value="" style="endArrow=classic;html=1;rounded=0;" parent="1" edge="1">
          <mxGeometry relative="1" as="geometry">
            <mxPoint x="180" y="589.71" as="sourcePoint" />
            <mxPoint x="280" y="589.71" as="targetPoint" />
          </mxGeometry>
        </mxCell>
        <mxCell id="9kV_0fhqUF1c1HFAQR6I-13" value="data_5" style="edgeLabel;html=1;align=center;verticalAlign=middle;resizable=0;points=[];fontStyle=1;fontSize=12;" parent="9kV_0fhqUF1c1HFAQR6I-12" vertex="1" connectable="0">
          <mxGeometry x="-0.1467" y="-3" relative="1" as="geometry">
            <mxPoint y="-13" as="offset" />
          </mxGeometry>
        </mxCell>
        <mxCell id="9kV_0fhqUF1c1HFAQR6I-14" value="" style="endArrow=classic;html=1;rounded=0;" parent="1" edge="1">
          <mxGeometry relative="1" as="geometry">
            <mxPoint x="180" y="629.71" as="sourcePoint" />
            <mxPoint x="280" y="629.71" as="targetPoint" />
          </mxGeometry>
        </mxCell>
        <mxCell id="9kV_0fhqUF1c1HFAQR6I-15" value="data_6" style="edgeLabel;html=1;align=center;verticalAlign=middle;resizable=0;points=[];fontStyle=1;fontSize=12;" parent="9kV_0fhqUF1c1HFAQR6I-14" vertex="1" connectable="0">
          <mxGeometry x="-0.1467" y="-3" relative="1" as="geometry">
            <mxPoint y="-13" as="offset" />
          </mxGeometry>
        </mxCell>
        <mxCell id="9kV_0fhqUF1c1HFAQR6I-16" value="" style="endArrow=classic;html=1;rounded=0;" parent="1" edge="1">
          <mxGeometry relative="1" as="geometry">
            <mxPoint x="180" y="669.71" as="sourcePoint" />
            <mxPoint x="280" y="669.71" as="targetPoint" />
          </mxGeometry>
        </mxCell>
        <mxCell id="9kV_0fhqUF1c1HFAQR6I-17" value="data_7" style="edgeLabel;html=1;align=center;verticalAlign=middle;resizable=0;points=[];fontStyle=1;fontSize=12;" parent="9kV_0fhqUF1c1HFAQR6I-16" vertex="1" connectable="0">
          <mxGeometry x="-0.1467" y="-3" relative="1" as="geometry">
            <mxPoint y="-13" as="offset" />
          </mxGeometry>
        </mxCell>
        <mxCell id="9kV_0fhqUF1c1HFAQR6I-18" value="" style="endArrow=classic;html=1;rounded=0;" parent="1" edge="1">
          <mxGeometry relative="1" as="geometry">
            <mxPoint x="560" y="391" as="sourcePoint" />
            <mxPoint x="660" y="391" as="targetPoint" />
          </mxGeometry>
        </mxCell>
        <mxCell id="9kV_0fhqUF1c1HFAQR6I-19" value="cr_data_0" style="edgeLabel;html=1;align=center;verticalAlign=middle;resizable=0;points=[];fontStyle=1;fontSize=12;" parent="9kV_0fhqUF1c1HFAQR6I-18" vertex="1" connectable="0">
          <mxGeometry x="-0.1467" y="-3" relative="1" as="geometry">
            <mxPoint y="-13" as="offset" />
          </mxGeometry>
        </mxCell>
        <mxCell id="9kV_0fhqUF1c1HFAQR6I-20" value="" style="endArrow=classic;html=1;rounded=0;" parent="1" edge="1">
          <mxGeometry relative="1" as="geometry">
            <mxPoint x="560" y="431" as="sourcePoint" />
            <mxPoint x="660" y="431" as="targetPoint" />
          </mxGeometry>
        </mxCell>
        <mxCell id="9kV_0fhqUF1c1HFAQR6I-21" value="cr_data_1" style="edgeLabel;html=1;align=center;verticalAlign=middle;resizable=0;points=[];fontStyle=1;fontSize=12;" parent="9kV_0fhqUF1c1HFAQR6I-20" vertex="1" connectable="0">
          <mxGeometry x="-0.1467" y="-3" relative="1" as="geometry">
            <mxPoint y="-13" as="offset" />
          </mxGeometry>
        </mxCell>
        <mxCell id="9kV_0fhqUF1c1HFAQR6I-22" value="" style="endArrow=classic;html=1;rounded=0;" parent="1" edge="1">
          <mxGeometry relative="1" as="geometry">
            <mxPoint x="560" y="471" as="sourcePoint" />
            <mxPoint x="660" y="471" as="targetPoint" />
          </mxGeometry>
        </mxCell>
        <mxCell id="9kV_0fhqUF1c1HFAQR6I-23" value="cr_data_2" style="edgeLabel;html=1;align=center;verticalAlign=middle;resizable=0;points=[];fontStyle=1;fontSize=12;" parent="9kV_0fhqUF1c1HFAQR6I-22" vertex="1" connectable="0">
          <mxGeometry x="-0.1467" y="-3" relative="1" as="geometry">
            <mxPoint y="-13" as="offset" />
          </mxGeometry>
        </mxCell>
        <mxCell id="9kV_0fhqUF1c1HFAQR6I-24" value="" style="endArrow=classic;html=1;rounded=0;" parent="1" edge="1">
          <mxGeometry relative="1" as="geometry">
            <mxPoint x="560" y="511" as="sourcePoint" />
            <mxPoint x="660" y="511" as="targetPoint" />
          </mxGeometry>
        </mxCell>
        <mxCell id="9kV_0fhqUF1c1HFAQR6I-25" value="cr_data_3" style="edgeLabel;html=1;align=center;verticalAlign=middle;resizable=0;points=[];fontStyle=1;fontSize=12;" parent="9kV_0fhqUF1c1HFAQR6I-24" vertex="1" connectable="0">
          <mxGeometry x="-0.1467" y="-3" relative="1" as="geometry">
            <mxPoint y="-13" as="offset" />
          </mxGeometry>
        </mxCell>
        <mxCell id="9kV_0fhqUF1c1HFAQR6I-26" value="" style="endArrow=classic;html=1;rounded=0;" parent="1" edge="1">
          <mxGeometry relative="1" as="geometry">
            <mxPoint x="560" y="551" as="sourcePoint" />
            <mxPoint x="660" y="551" as="targetPoint" />
          </mxGeometry>
        </mxCell>
        <mxCell id="9kV_0fhqUF1c1HFAQR6I-27" value="cr_data_4" style="edgeLabel;html=1;align=center;verticalAlign=middle;resizable=0;points=[];fontStyle=1;fontSize=12;" parent="9kV_0fhqUF1c1HFAQR6I-26" vertex="1" connectable="0">
          <mxGeometry x="-0.1467" y="-3" relative="1" as="geometry">
            <mxPoint y="-13" as="offset" />
          </mxGeometry>
        </mxCell>
        <mxCell id="9kV_0fhqUF1c1HFAQR6I-28" value="" style="endArrow=classic;html=1;rounded=0;" parent="1" edge="1">
          <mxGeometry relative="1" as="geometry">
            <mxPoint x="560" y="591" as="sourcePoint" />
            <mxPoint x="660" y="591" as="targetPoint" />
          </mxGeometry>
        </mxCell>
        <mxCell id="9kV_0fhqUF1c1HFAQR6I-29" value="cr_data_5" style="edgeLabel;html=1;align=center;verticalAlign=middle;resizable=0;points=[];fontStyle=1;fontSize=12;" parent="9kV_0fhqUF1c1HFAQR6I-28" vertex="1" connectable="0">
          <mxGeometry x="-0.1467" y="-3" relative="1" as="geometry">
            <mxPoint y="-13" as="offset" />
          </mxGeometry>
        </mxCell>
        <mxCell id="9kV_0fhqUF1c1HFAQR6I-30" value="" style="endArrow=classic;html=1;rounded=0;" parent="1" edge="1">
          <mxGeometry relative="1" as="geometry">
            <mxPoint x="560" y="631" as="sourcePoint" />
            <mxPoint x="660" y="631" as="targetPoint" />
          </mxGeometry>
        </mxCell>
        <mxCell id="9kV_0fhqUF1c1HFAQR6I-31" value="cr_data_6" style="edgeLabel;html=1;align=center;verticalAlign=middle;resizable=0;points=[];fontStyle=1;fontSize=12;" parent="9kV_0fhqUF1c1HFAQR6I-30" vertex="1" connectable="0">
          <mxGeometry x="-0.1467" y="-3" relative="1" as="geometry">
            <mxPoint y="-13" as="offset" />
          </mxGeometry>
        </mxCell>
        <mxCell id="9kV_0fhqUF1c1HFAQR6I-32" value="" style="endArrow=classic;html=1;rounded=0;" parent="1" edge="1">
          <mxGeometry relative="1" as="geometry">
            <mxPoint x="560" y="671" as="sourcePoint" />
            <mxPoint x="660" y="671" as="targetPoint" />
          </mxGeometry>
        </mxCell>
        <mxCell id="9kV_0fhqUF1c1HFAQR6I-33" value="cr_data_7" style="edgeLabel;html=1;align=center;verticalAlign=middle;resizable=0;points=[];fontStyle=1;fontSize=12;" parent="9kV_0fhqUF1c1HFAQR6I-32" vertex="1" connectable="0">
          <mxGeometry x="-0.1467" y="-3" relative="1" as="geometry">
            <mxPoint y="-13" as="offset" />
          </mxGeometry>
        </mxCell>
        <mxCell id="9kV_0fhqUF1c1HFAQR6I-34" value="" style="endArrow=classic;html=1;rounded=0;entryX=0.103;entryY=0;entryDx=0;entryDy=0;entryPerimeter=0;" parent="1" edge="1">
          <mxGeometry relative="1" as="geometry">
            <mxPoint x="365" y="270" as="sourcePoint" />
            <mxPoint x="364.9999999999999" y="350" as="targetPoint" />
          </mxGeometry>
        </mxCell>
        <mxCell id="9kV_0fhqUF1c1HFAQR6I-35" value="clk" style="edgeLabel;html=1;align=center;verticalAlign=middle;resizable=0;points=[];fontStyle=1;fontSize=12;" parent="9kV_0fhqUF1c1HFAQR6I-34" vertex="1" connectable="0">
          <mxGeometry x="-0.1467" y="-3" relative="1" as="geometry">
            <mxPoint x="3" y="6" as="offset" />
          </mxGeometry>
        </mxCell>
        <mxCell id="9kV_0fhqUF1c1HFAQR6I-36" value="" style="endArrow=classic;html=1;rounded=0;entryX=0.103;entryY=0;entryDx=0;entryDy=0;entryPerimeter=0;" parent="1" edge="1">
          <mxGeometry relative="1" as="geometry">
            <mxPoint x="420" y="270" as="sourcePoint" />
            <mxPoint x="419.9999999999999" y="350" as="targetPoint" />
          </mxGeometry>
        </mxCell>
        <mxCell id="9kV_0fhqUF1c1HFAQR6I-37" value="clk" style="edgeLabel;html=1;align=center;verticalAlign=middle;resizable=0;points=[];fontStyle=1;fontSize=12;" parent="9kV_0fhqUF1c1HFAQR6I-36" vertex="1" connectable="0">
          <mxGeometry x="-0.1467" y="-3" relative="1" as="geometry">
            <mxPoint x="3" y="6" as="offset" />
          </mxGeometry>
        </mxCell>
        <mxCell id="9kV_0fhqUF1c1HFAQR6I-38" value="&lt;b&gt;&lt;font style=&quot;font-size: 12px;&quot;&gt;enable&lt;/font&gt;&lt;/b&gt;" style="edgeLabel;html=1;align=center;verticalAlign=middle;resizable=0;points=[];" parent="9kV_0fhqUF1c1HFAQR6I-36" vertex="1" connectable="0">
          <mxGeometry x="-0.025" y="2" relative="1" as="geometry">
            <mxPoint as="offset" />
          </mxGeometry>
        </mxCell>
        <mxCell id="9kV_0fhqUF1c1HFAQR6I-39" value="" style="endArrow=classic;html=1;rounded=0;entryX=0.103;entryY=0;entryDx=0;entryDy=0;entryPerimeter=0;" parent="1" edge="1">
          <mxGeometry relative="1" as="geometry">
            <mxPoint x="472" y="270" as="sourcePoint" />
            <mxPoint x="471.9999999999999" y="350" as="targetPoint" />
          </mxGeometry>
        </mxCell>
        <mxCell id="9kV_0fhqUF1c1HFAQR6I-40" value="clk" style="edgeLabel;html=1;align=center;verticalAlign=middle;resizable=0;points=[];fontStyle=1;fontSize=12;" parent="9kV_0fhqUF1c1HFAQR6I-39" vertex="1" connectable="0">
          <mxGeometry x="-0.1467" y="-3" relative="1" as="geometry">
            <mxPoint x="3" y="6" as="offset" />
          </mxGeometry>
        </mxCell>
        <mxCell id="9kV_0fhqUF1c1HFAQR6I-41" value="&lt;b&gt;&lt;font style=&quot;font-size: 12px;&quot;&gt;code&lt;/font&gt;&lt;/b&gt;" style="edgeLabel;html=1;align=center;verticalAlign=middle;resizable=0;points=[];" parent="9kV_0fhqUF1c1HFAQR6I-39" vertex="1" connectable="0">
          <mxGeometry x="-0.025" y="2" relative="1" as="geometry">
            <mxPoint as="offset" />
          </mxGeometry>
        </mxCell>
      </root>
    </mxGraphModel>
  </diagram>
  <diagram id="DcRJehUWIWov4eIi07vO" name="ecc_encoder">
    <mxGraphModel dx="1802" dy="909" grid="0" gridSize="10" guides="1" tooltips="1" connect="1" arrows="1" fold="1" page="1" pageScale="1" pageWidth="827" pageHeight="1169" math="0" shadow="0">
      <root>
        <mxCell id="0" />
        <mxCell id="1" parent="0" />
        <mxCell id="z0puTvAtDQ5UHlxeMP87-1" value="&lt;b&gt;&lt;font style=&quot;font-size: 20px;&quot;&gt;ecc_encoder&lt;/font&gt;&lt;/b&gt;" style="rounded=1;whiteSpace=wrap;html=1;" parent="1" vertex="1">
          <mxGeometry x="280" y="240" width="240" height="360" as="geometry" />
        </mxCell>
        <mxCell id="z0puTvAtDQ5UHlxeMP87-2" value="" style="endArrow=classic;html=1;rounded=0;" parent="1" edge="1">
          <mxGeometry relative="1" as="geometry">
            <mxPoint x="180" y="279" as="sourcePoint" />
            <mxPoint x="280" y="279" as="targetPoint" />
          </mxGeometry>
        </mxCell>
        <mxCell id="z0puTvAtDQ5UHlxeMP87-3" value="data_0" style="edgeLabel;html=1;align=center;verticalAlign=middle;resizable=0;points=[];fontStyle=1;fontSize=12;" parent="z0puTvAtDQ5UHlxeMP87-2" vertex="1" connectable="0">
          <mxGeometry x="-0.1467" y="-3" relative="1" as="geometry">
            <mxPoint y="-13" as="offset" />
          </mxGeometry>
        </mxCell>
        <mxCell id="z0puTvAtDQ5UHlxeMP87-4" value="" style="endArrow=classic;html=1;rounded=0;" parent="1" edge="1">
          <mxGeometry relative="1" as="geometry">
            <mxPoint x="180" y="319" as="sourcePoint" />
            <mxPoint x="280" y="319" as="targetPoint" />
          </mxGeometry>
        </mxCell>
        <mxCell id="z0puTvAtDQ5UHlxeMP87-5" value="data_1" style="edgeLabel;html=1;align=center;verticalAlign=middle;resizable=0;points=[];fontStyle=1;fontSize=12;" parent="z0puTvAtDQ5UHlxeMP87-4" vertex="1" connectable="0">
          <mxGeometry x="-0.1467" y="-3" relative="1" as="geometry">
            <mxPoint y="-13" as="offset" />
          </mxGeometry>
        </mxCell>
        <mxCell id="z0puTvAtDQ5UHlxeMP87-6" value="" style="endArrow=classic;html=1;rounded=0;" parent="1" edge="1">
          <mxGeometry relative="1" as="geometry">
            <mxPoint x="180" y="359" as="sourcePoint" />
            <mxPoint x="280" y="359" as="targetPoint" />
          </mxGeometry>
        </mxCell>
        <mxCell id="z0puTvAtDQ5UHlxeMP87-7" value="data_2" style="edgeLabel;html=1;align=center;verticalAlign=middle;resizable=0;points=[];fontStyle=1;fontSize=12;" parent="z0puTvAtDQ5UHlxeMP87-6" vertex="1" connectable="0">
          <mxGeometry x="-0.1467" y="-3" relative="1" as="geometry">
            <mxPoint y="-13" as="offset" />
          </mxGeometry>
        </mxCell>
        <mxCell id="z0puTvAtDQ5UHlxeMP87-8" value="" style="endArrow=classic;html=1;rounded=0;" parent="1" edge="1">
          <mxGeometry relative="1" as="geometry">
            <mxPoint x="180" y="399" as="sourcePoint" />
            <mxPoint x="280" y="399" as="targetPoint" />
          </mxGeometry>
        </mxCell>
        <mxCell id="z0puTvAtDQ5UHlxeMP87-9" value="data_3" style="edgeLabel;html=1;align=center;verticalAlign=middle;resizable=0;points=[];fontStyle=1;fontSize=12;" parent="z0puTvAtDQ5UHlxeMP87-8" vertex="1" connectable="0">
          <mxGeometry x="-0.1467" y="-3" relative="1" as="geometry">
            <mxPoint y="-13" as="offset" />
          </mxGeometry>
        </mxCell>
        <mxCell id="z0puTvAtDQ5UHlxeMP87-10" value="" style="endArrow=classic;html=1;rounded=0;" parent="1" edge="1">
          <mxGeometry relative="1" as="geometry">
            <mxPoint x="180" y="439" as="sourcePoint" />
            <mxPoint x="280" y="439" as="targetPoint" />
          </mxGeometry>
        </mxCell>
        <mxCell id="z0puTvAtDQ5UHlxeMP87-11" value="data_4" style="edgeLabel;html=1;align=center;verticalAlign=middle;resizable=0;points=[];fontStyle=1;fontSize=12;" parent="z0puTvAtDQ5UHlxeMP87-10" vertex="1" connectable="0">
          <mxGeometry x="-0.1467" y="-3" relative="1" as="geometry">
            <mxPoint y="-13" as="offset" />
          </mxGeometry>
        </mxCell>
        <mxCell id="z0puTvAtDQ5UHlxeMP87-12" value="" style="endArrow=classic;html=1;rounded=0;" parent="1" edge="1">
          <mxGeometry relative="1" as="geometry">
            <mxPoint x="180" y="479" as="sourcePoint" />
            <mxPoint x="280" y="479" as="targetPoint" />
          </mxGeometry>
        </mxCell>
        <mxCell id="z0puTvAtDQ5UHlxeMP87-13" value="data_5" style="edgeLabel;html=1;align=center;verticalAlign=middle;resizable=0;points=[];fontStyle=1;fontSize=12;" parent="z0puTvAtDQ5UHlxeMP87-12" vertex="1" connectable="0">
          <mxGeometry x="-0.1467" y="-3" relative="1" as="geometry">
            <mxPoint y="-13" as="offset" />
          </mxGeometry>
        </mxCell>
        <mxCell id="z0puTvAtDQ5UHlxeMP87-14" value="" style="endArrow=classic;html=1;rounded=0;" parent="1" edge="1">
          <mxGeometry relative="1" as="geometry">
            <mxPoint x="180" y="519" as="sourcePoint" />
            <mxPoint x="280" y="519" as="targetPoint" />
          </mxGeometry>
        </mxCell>
        <mxCell id="z0puTvAtDQ5UHlxeMP87-15" value="data_6" style="edgeLabel;html=1;align=center;verticalAlign=middle;resizable=0;points=[];fontStyle=1;fontSize=12;" parent="z0puTvAtDQ5UHlxeMP87-14" vertex="1" connectable="0">
          <mxGeometry x="-0.1467" y="-3" relative="1" as="geometry">
            <mxPoint y="-13" as="offset" />
          </mxGeometry>
        </mxCell>
        <mxCell id="z0puTvAtDQ5UHlxeMP87-16" value="" style="endArrow=classic;html=1;rounded=0;" parent="1" edge="1">
          <mxGeometry relative="1" as="geometry">
            <mxPoint x="180" y="559" as="sourcePoint" />
            <mxPoint x="280" y="559" as="targetPoint" />
          </mxGeometry>
        </mxCell>
        <mxCell id="z0puTvAtDQ5UHlxeMP87-17" value="data_7" style="edgeLabel;html=1;align=center;verticalAlign=middle;resizable=0;points=[];fontStyle=1;fontSize=12;" parent="z0puTvAtDQ5UHlxeMP87-16" vertex="1" connectable="0">
          <mxGeometry x="-0.1467" y="-3" relative="1" as="geometry">
            <mxPoint y="-13" as="offset" />
          </mxGeometry>
        </mxCell>
        <mxCell id="z0puTvAtDQ5UHlxeMP87-18" value="" style="endArrow=classic;html=1;rounded=0;" parent="1" edge="1">
          <mxGeometry relative="1" as="geometry">
            <mxPoint x="520" y="428.38" as="sourcePoint" />
            <mxPoint x="610" y="428.38" as="targetPoint" />
          </mxGeometry>
        </mxCell>
        <mxCell id="z0puTvAtDQ5UHlxeMP87-19" value="&lt;span style=&quot;font-size: 12px;&quot;&gt;&lt;font style=&quot;font-size: 12px;&quot;&gt;code&lt;/font&gt;&lt;/span&gt;" style="edgeLabel;html=1;align=center;verticalAlign=middle;resizable=0;points=[];fontSize=12;fontStyle=1" parent="z0puTvAtDQ5UHlxeMP87-18" vertex="1" connectable="0">
          <mxGeometry x="-0.025" y="2" relative="1" as="geometry">
            <mxPoint y="-7" as="offset" />
          </mxGeometry>
        </mxCell>
      </root>
    </mxGraphModel>
  </diagram>
  <diagram id="Nljn4EiVXH3AwYqSFm3Q" name="port_rd_dispatch">
    <mxGraphModel dx="1802" dy="909" grid="0" gridSize="10" guides="1" tooltips="1" connect="1" arrows="1" fold="1" page="1" pageScale="1" pageWidth="827" pageHeight="1169" math="0" shadow="0">
      <root>
        <mxCell id="0" />
        <mxCell id="1" parent="0" />
        <mxCell id="Okl3Nm80jM_2VswUKz9_-1" value="&lt;span style=&quot;font-size: 20px;&quot;&gt;&lt;span&gt;port_rd_dispatch&lt;/span&gt;&lt;/span&gt;" style="rounded=1;whiteSpace=wrap;html=1;fontStyle=1" parent="1" vertex="1">
          <mxGeometry x="320" y="280" width="220" height="310" as="geometry" />
        </mxCell>
        <mxCell id="Okl3Nm80jM_2VswUKz9_-2" value="" style="endArrow=classic;html=1;rounded=0;" parent="1" edge="1">
          <mxGeometry relative="1" as="geometry">
            <mxPoint x="220" y="358" as="sourcePoint" />
            <mxPoint x="320" y="358" as="targetPoint" />
          </mxGeometry>
        </mxCell>
        <mxCell id="Okl3Nm80jM_2VswUKz9_-3" value="clk" style="edgeLabel;html=1;align=center;verticalAlign=middle;resizable=0;points=[];fontStyle=1;fontSize=12;" parent="Okl3Nm80jM_2VswUKz9_-2" vertex="1" connectable="0">
          <mxGeometry x="-0.1467" y="-3" relative="1" as="geometry">
            <mxPoint y="-13" as="offset" />
          </mxGeometry>
        </mxCell>
        <mxCell id="Okl3Nm80jM_2VswUKz9_-4" value="" style="endArrow=classic;html=1;rounded=0;" parent="1" edge="1">
          <mxGeometry relative="1" as="geometry">
            <mxPoint x="220" y="398" as="sourcePoint" />
            <mxPoint x="320" y="398" as="targetPoint" />
          </mxGeometry>
        </mxCell>
        <mxCell id="Okl3Nm80jM_2VswUKz9_-5" value="rst_n" style="edgeLabel;html=1;align=center;verticalAlign=middle;resizable=0;points=[];fontStyle=1;fontSize=12;" parent="Okl3Nm80jM_2VswUKz9_-4" vertex="1" connectable="0">
          <mxGeometry x="-0.1467" y="-3" relative="1" as="geometry">
            <mxPoint y="-13" as="offset" />
          </mxGeometry>
        </mxCell>
        <mxCell id="Okl3Nm80jM_2VswUKz9_-6" value="" style="endArrow=classic;html=1;rounded=0;" parent="1" edge="1">
          <mxGeometry relative="1" as="geometry">
            <mxPoint x="220" y="438" as="sourcePoint" />
            <mxPoint x="320" y="438" as="targetPoint" />
          </mxGeometry>
        </mxCell>
        <mxCell id="Okl3Nm80jM_2VswUKz9_-7" value="wrr_en" style="edgeLabel;html=1;align=center;verticalAlign=middle;resizable=0;points=[];fontStyle=1;fontSize=12;" parent="Okl3Nm80jM_2VswUKz9_-6" vertex="1" connectable="0">
          <mxGeometry x="-0.1467" y="-3" relative="1" as="geometry">
            <mxPoint y="-13" as="offset" />
          </mxGeometry>
        </mxCell>
        <mxCell id="Okl3Nm80jM_2VswUKz9_-8" value="" style="endArrow=classic;html=1;rounded=0;" parent="1" edge="1">
          <mxGeometry relative="1" as="geometry">
            <mxPoint x="220" y="478" as="sourcePoint" />
            <mxPoint x="320" y="478" as="targetPoint" />
          </mxGeometry>
        </mxCell>
        <mxCell id="Okl3Nm80jM_2VswUKz9_-9" value="queue_empty" style="edgeLabel;html=1;align=center;verticalAlign=middle;resizable=0;points=[];fontStyle=1;fontSize=12;" parent="Okl3Nm80jM_2VswUKz9_-8" vertex="1" connectable="0">
          <mxGeometry x="-0.1467" y="-3" relative="1" as="geometry">
            <mxPoint y="-13" as="offset" />
          </mxGeometry>
        </mxCell>
        <mxCell id="Okl3Nm80jM_2VswUKz9_-10" value="" style="endArrow=classic;html=1;rounded=0;" parent="1" edge="1">
          <mxGeometry relative="1" as="geometry">
            <mxPoint x="220" y="518" as="sourcePoint" />
            <mxPoint x="320" y="518" as="targetPoint" />
          </mxGeometry>
        </mxCell>
        <mxCell id="Okl3Nm80jM_2VswUKz9_-11" value="update" style="edgeLabel;html=1;align=center;verticalAlign=middle;resizable=0;points=[];fontStyle=1;fontSize=12;" parent="Okl3Nm80jM_2VswUKz9_-10" vertex="1" connectable="0">
          <mxGeometry x="-0.1467" y="-3" relative="1" as="geometry">
            <mxPoint y="-13" as="offset" />
          </mxGeometry>
        </mxCell>
        <mxCell id="Okl3Nm80jM_2VswUKz9_-12" value="" style="endArrow=classic;html=1;rounded=0;" parent="1" edge="1">
          <mxGeometry relative="1" as="geometry">
            <mxPoint x="540" y="439" as="sourcePoint" />
            <mxPoint x="640" y="439" as="targetPoint" />
          </mxGeometry>
        </mxCell>
        <mxCell id="Okl3Nm80jM_2VswUKz9_-13" value="rd_prior" style="edgeLabel;html=1;align=center;verticalAlign=middle;resizable=0;points=[];fontStyle=1;fontSize=12;" parent="Okl3Nm80jM_2VswUKz9_-12" vertex="1" connectable="0">
          <mxGeometry x="-0.1467" y="-3" relative="1" as="geometry">
            <mxPoint y="-13" as="offset" />
          </mxGeometry>
        </mxCell>
      </root>
    </mxGraphModel>
  </diagram>
  <diagram name="port_rd_fronted" id="IGY3-wLs9GOJo81jbpK2">
    <mxGraphModel dx="858" dy="433" grid="0" gridSize="10" guides="1" tooltips="1" connect="1" arrows="1" fold="1" page="1" pageScale="1" pageWidth="827" pageHeight="1169" math="0" shadow="0">
      <root>
        <mxCell id="0" />
        <mxCell id="1" parent="0" />
        <mxCell id="4k_BAH4Ap3cNZQAnBOqe-1" value="&lt;span style=&quot;font-size: 20px;&quot;&gt;&lt;b&gt;port_rd_frontend&lt;/b&gt;&lt;/span&gt;" style="rounded=1;whiteSpace=wrap;html=1;" parent="1" vertex="1">
          <mxGeometry x="320" y="360" width="210" height="280" as="geometry" />
        </mxCell>
        <mxCell id="4k_BAH4Ap3cNZQAnBOqe-2" value="" style="endArrow=classic;html=1;rounded=0;" parent="1" edge="1">
          <mxGeometry relative="1" as="geometry">
            <mxPoint x="220" y="440" as="sourcePoint" />
            <mxPoint x="320" y="440" as="targetPoint" />
          </mxGeometry>
        </mxCell>
        <mxCell id="4k_BAH4Ap3cNZQAnBOqe-3" value="clk" style="edgeLabel;html=1;align=center;verticalAlign=middle;resizable=0;points=[];fontStyle=1;fontSize=12;" parent="4k_BAH4Ap3cNZQAnBOqe-2" vertex="1" connectable="0">
          <mxGeometry x="-0.1467" y="-3" relative="1" as="geometry">
            <mxPoint y="-13" as="offset" />
          </mxGeometry>
        </mxCell>
        <mxCell id="4k_BAH4Ap3cNZQAnBOqe-4" value="" style="endArrow=classic;html=1;rounded=0;" parent="1" edge="1">
          <mxGeometry relative="1" as="geometry">
            <mxPoint x="220" y="480" as="sourcePoint" />
            <mxPoint x="320" y="480" as="targetPoint" />
          </mxGeometry>
        </mxCell>
        <mxCell id="4k_BAH4Ap3cNZQAnBOqe-5" value="xfer_data_vld" style="edgeLabel;html=1;align=center;verticalAlign=middle;resizable=0;points=[];fontStyle=1;fontSize=12;" parent="4k_BAH4Ap3cNZQAnBOqe-4" vertex="1" connectable="0">
          <mxGeometry x="-0.1467" y="-3" relative="1" as="geometry">
            <mxPoint y="-13" as="offset" />
          </mxGeometry>
        </mxCell>
        <mxCell id="4k_BAH4Ap3cNZQAnBOqe-6" value="" style="endArrow=classic;html=1;rounded=0;" parent="1" edge="1">
          <mxGeometry relative="1" as="geometry">
            <mxPoint x="220" y="520" as="sourcePoint" />
            <mxPoint x="320" y="520" as="targetPoint" />
          </mxGeometry>
        </mxCell>
        <mxCell id="4k_BAH4Ap3cNZQAnBOqe-7" value="xfer_data" style="edgeLabel;html=1;align=center;verticalAlign=middle;resizable=0;points=[];fontStyle=1;fontSize=12;" parent="4k_BAH4Ap3cNZQAnBOqe-6" vertex="1" connectable="0">
          <mxGeometry x="-0.1467" y="-3" relative="1" as="geometry">
            <mxPoint y="-13" as="offset" />
          </mxGeometry>
        </mxCell>
        <mxCell id="4k_BAH4Ap3cNZQAnBOqe-8" value="" style="endArrow=classic;html=1;rounded=0;" parent="1" edge="1">
          <mxGeometry relative="1" as="geometry">
            <mxPoint x="220" y="560" as="sourcePoint" />
            <mxPoint x="320" y="560" as="targetPoint" />
          </mxGeometry>
        </mxCell>
        <mxCell id="4k_BAH4Ap3cNZQAnBOqe-9" value="end_of_packet" style="edgeLabel;html=1;align=center;verticalAlign=middle;resizable=0;points=[];fontStyle=1;fontSize=12;" parent="4k_BAH4Ap3cNZQAnBOqe-8" vertex="1" connectable="0">
          <mxGeometry x="-0.1467" y="-3" relative="1" as="geometry">
            <mxPoint y="-13" as="offset" />
          </mxGeometry>
        </mxCell>
        <mxCell id="4k_BAH4Ap3cNZQAnBOqe-12" value="" style="endArrow=classic;html=1;rounded=0;" parent="1" edge="1">
          <mxGeometry relative="1" as="geometry">
            <mxPoint x="530" y="470" as="sourcePoint" />
            <mxPoint x="630" y="470" as="targetPoint" />
          </mxGeometry>
        </mxCell>
        <mxCell id="4k_BAH4Ap3cNZQAnBOqe-13" value="rd_eop" style="edgeLabel;html=1;align=center;verticalAlign=middle;resizable=0;points=[];fontStyle=1;fontSize=12;" parent="4k_BAH4Ap3cNZQAnBOqe-12" vertex="1" connectable="0">
          <mxGeometry x="-0.1467" y="-3" relative="1" as="geometry">
            <mxPoint y="-13" as="offset" />
          </mxGeometry>
        </mxCell>
        <mxCell id="4k_BAH4Ap3cNZQAnBOqe-15" value="" style="endArrow=classic;html=1;rounded=0;" parent="1" edge="1">
          <mxGeometry relative="1" as="geometry">
            <mxPoint x="530" y="510" as="sourcePoint" />
            <mxPoint x="630" y="510" as="targetPoint" />
          </mxGeometry>
        </mxCell>
        <mxCell id="4k_BAH4Ap3cNZQAnBOqe-16" value="rd_vld" style="edgeLabel;html=1;align=center;verticalAlign=middle;resizable=0;points=[];fontStyle=1;fontSize=12;" parent="4k_BAH4Ap3cNZQAnBOqe-15" vertex="1" connectable="0">
          <mxGeometry x="-0.1467" y="-3" relative="1" as="geometry">
            <mxPoint y="-13" as="offset" />
          </mxGeometry>
        </mxCell>
        <mxCell id="4k_BAH4Ap3cNZQAnBOqe-17" value="" style="endArrow=classic;html=1;rounded=0;" parent="1" edge="1">
          <mxGeometry relative="1" as="geometry">
            <mxPoint x="530" y="550" as="sourcePoint" />
            <mxPoint x="630" y="550" as="targetPoint" />
          </mxGeometry>
        </mxCell>
        <mxCell id="4k_BAH4Ap3cNZQAnBOqe-18" value="rd_data" style="edgeLabel;html=1;align=center;verticalAlign=middle;resizable=0;points=[];fontStyle=1;fontSize=12;" parent="4k_BAH4Ap3cNZQAnBOqe-17" vertex="1" connectable="0">
          <mxGeometry x="-0.1467" y="-3" relative="1" as="geometry">
            <mxPoint y="-13" as="offset" />
          </mxGeometry>
        </mxCell>
      </root>
    </mxGraphModel>
  </diagram>
  <diagram id="a6mzRXFgYtIbe9RDSm7K" name="port_wr_fronted">
    <mxGraphModel dx="858" dy="433" grid="0" gridSize="10" guides="1" tooltips="1" connect="1" arrows="1" fold="1" page="1" pageScale="1" pageWidth="827" pageHeight="1169" math="0" shadow="0">
      <root>
        <mxCell id="0" />
        <mxCell id="1" parent="0" />
        <mxCell id="bCKFN4Ledh4VkEm4xxUK-1" value="&lt;span style=&quot;font-size: 20px;&quot;&gt;&lt;b&gt;port_wr_frontend&lt;/b&gt;&lt;/span&gt;" style="rounded=1;whiteSpace=wrap;html=1;" parent="1" vertex="1">
          <mxGeometry x="280" y="340" width="238" height="370" as="geometry" />
        </mxCell>
        <mxCell id="bCKFN4Ledh4VkEm4xxUK-2" value="" style="endArrow=classic;html=1;rounded=0;" parent="1" edge="1">
          <mxGeometry relative="1" as="geometry">
            <mxPoint x="179" y="408" as="sourcePoint" />
            <mxPoint x="279" y="408" as="targetPoint" />
          </mxGeometry>
        </mxCell>
        <mxCell id="bCKFN4Ledh4VkEm4xxUK-3" value="clk" style="edgeLabel;html=1;align=center;verticalAlign=middle;resizable=0;points=[];fontStyle=1;fontSize=12;" parent="bCKFN4Ledh4VkEm4xxUK-2" vertex="1" connectable="0">
          <mxGeometry x="-0.1467" y="-3" relative="1" as="geometry">
            <mxPoint y="-13" as="offset" />
          </mxGeometry>
        </mxCell>
        <mxCell id="bCKFN4Ledh4VkEm4xxUK-4" value="" style="endArrow=classic;html=1;rounded=0;" parent="1" edge="1">
          <mxGeometry relative="1" as="geometry">
            <mxPoint x="179" y="449" as="sourcePoint" />
            <mxPoint x="279" y="449" as="targetPoint" />
          </mxGeometry>
        </mxCell>
        <mxCell id="bCKFN4Ledh4VkEm4xxUK-5" value="rst_n" style="edgeLabel;html=1;align=center;verticalAlign=middle;resizable=0;points=[];fontStyle=1;fontSize=12;" parent="bCKFN4Ledh4VkEm4xxUK-4" vertex="1" connectable="0">
          <mxGeometry x="-0.1467" y="-3" relative="1" as="geometry">
            <mxPoint y="-13" as="offset" />
          </mxGeometry>
        </mxCell>
        <mxCell id="bCKFN4Ledh4VkEm4xxUK-6" value="" style="endArrow=classic;html=1;rounded=0;" parent="1" edge="1">
          <mxGeometry relative="1" as="geometry">
            <mxPoint x="179" y="490" as="sourcePoint" />
            <mxPoint x="279" y="490" as="targetPoint" />
          </mxGeometry>
        </mxCell>
        <mxCell id="bCKFN4Ledh4VkEm4xxUK-7" value="wr_sop" style="edgeLabel;html=1;align=center;verticalAlign=middle;resizable=0;points=[];fontStyle=1;fontSize=12;" parent="bCKFN4Ledh4VkEm4xxUK-6" vertex="1" connectable="0">
          <mxGeometry x="-0.1467" y="-3" relative="1" as="geometry">
            <mxPoint y="-13" as="offset" />
          </mxGeometry>
        </mxCell>
        <mxCell id="bCKFN4Ledh4VkEm4xxUK-8" value="" style="endArrow=classic;html=1;rounded=0;" parent="1" edge="1">
          <mxGeometry relative="1" as="geometry">
            <mxPoint x="179" y="528" as="sourcePoint" />
            <mxPoint x="279" y="528" as="targetPoint" />
          </mxGeometry>
        </mxCell>
        <mxCell id="bCKFN4Ledh4VkEm4xxUK-9" value="wr_eop" style="edgeLabel;html=1;align=center;verticalAlign=middle;resizable=0;points=[];fontStyle=1;fontSize=12;" parent="bCKFN4Ledh4VkEm4xxUK-8" vertex="1" connectable="0">
          <mxGeometry x="-0.1467" y="-3" relative="1" as="geometry">
            <mxPoint y="-13" as="offset" />
          </mxGeometry>
        </mxCell>
        <mxCell id="bCKFN4Ledh4VkEm4xxUK-10" value="" style="endArrow=classic;html=1;rounded=0;" parent="1" edge="1">
          <mxGeometry relative="1" as="geometry">
            <mxPoint x="179" y="569" as="sourcePoint" />
            <mxPoint x="279" y="569" as="targetPoint" />
          </mxGeometry>
        </mxCell>
        <mxCell id="bCKFN4Ledh4VkEm4xxUK-11" value="wr_vld" style="edgeLabel;html=1;align=center;verticalAlign=middle;resizable=0;points=[];fontStyle=1;fontSize=12;" parent="bCKFN4Ledh4VkEm4xxUK-10" vertex="1" connectable="0">
          <mxGeometry x="-0.1467" y="-3" relative="1" as="geometry">
            <mxPoint y="-13" as="offset" />
          </mxGeometry>
        </mxCell>
        <mxCell id="bCKFN4Ledh4VkEm4xxUK-12" value="" style="endArrow=classic;html=1;rounded=0;" parent="1" edge="1">
          <mxGeometry relative="1" as="geometry">
            <mxPoint x="179" y="608" as="sourcePoint" />
            <mxPoint x="279" y="608" as="targetPoint" />
          </mxGeometry>
        </mxCell>
        <mxCell id="bCKFN4Ledh4VkEm4xxUK-13" value="wr_data" style="edgeLabel;html=1;align=center;verticalAlign=middle;resizable=0;points=[];fontStyle=1;fontSize=12;" parent="bCKFN4Ledh4VkEm4xxUK-12" vertex="1" connectable="0">
          <mxGeometry x="-0.1467" y="-3" relative="1" as="geometry">
            <mxPoint y="-13" as="offset" />
          </mxGeometry>
        </mxCell>
        <mxCell id="bCKFN4Ledh4VkEm4xxUK-14" value="" style="endArrow=classic;html=1;rounded=0;" parent="1" edge="1">
          <mxGeometry relative="1" as="geometry">
            <mxPoint x="179" y="649" as="sourcePoint" />
            <mxPoint x="279" y="649" as="targetPoint" />
          </mxGeometry>
        </mxCell>
        <mxCell id="bCKFN4Ledh4VkEm4xxUK-15" value="match_suc" style="edgeLabel;html=1;align=center;verticalAlign=middle;resizable=0;points=[];fontStyle=1;fontSize=12;" parent="bCKFN4Ledh4VkEm4xxUK-14" vertex="1" connectable="0">
          <mxGeometry x="-0.1467" y="-3" relative="1" as="geometry">
            <mxPoint y="-13" as="offset" />
          </mxGeometry>
        </mxCell>
        <mxCell id="bCKFN4Ledh4VkEm4xxUK-18" value="" style="endArrow=classic;html=1;rounded=0;" parent="1" edge="1">
          <mxGeometry relative="1" as="geometry">
            <mxPoint x="518" y="388" as="sourcePoint" />
            <mxPoint x="618" y="388" as="targetPoint" />
          </mxGeometry>
        </mxCell>
        <mxCell id="bCKFN4Ledh4VkEm4xxUK-19" value="pause" style="edgeLabel;html=1;align=center;verticalAlign=middle;resizable=0;points=[];fontStyle=1;fontSize=12;" parent="bCKFN4Ledh4VkEm4xxUK-18" vertex="1" connectable="0">
          <mxGeometry x="-0.1467" y="-3" relative="1" as="geometry">
            <mxPoint y="-13" as="offset" />
          </mxGeometry>
        </mxCell>
        <mxCell id="bCKFN4Ledh4VkEm4xxUK-20" value="" style="endArrow=classic;html=1;rounded=0;" parent="1" edge="1">
          <mxGeometry relative="1" as="geometry">
            <mxPoint x="518" y="429" as="sourcePoint" />
            <mxPoint x="618" y="429" as="targetPoint" />
          </mxGeometry>
        </mxCell>
        <mxCell id="bCKFN4Ledh4VkEm4xxUK-21" value="ready_to_xfer" style="edgeLabel;html=1;align=center;verticalAlign=middle;resizable=0;points=[];fontStyle=1;fontSize=12;" parent="bCKFN4Ledh4VkEm4xxUK-20" vertex="1" connectable="0">
          <mxGeometry x="-0.1467" y="-3" relative="1" as="geometry">
            <mxPoint y="-13" as="offset" />
          </mxGeometry>
        </mxCell>
        <mxCell id="bCKFN4Ledh4VkEm4xxUK-22" value="" style="endArrow=classic;html=1;rounded=0;" parent="1" edge="1">
          <mxGeometry relative="1" as="geometry">
            <mxPoint x="518" y="468" as="sourcePoint" />
            <mxPoint x="618" y="468" as="targetPoint" />
          </mxGeometry>
        </mxCell>
        <mxCell id="bCKFN4Ledh4VkEm4xxUK-23" value="xfer_data_vld" style="edgeLabel;html=1;align=center;verticalAlign=middle;resizable=0;points=[];fontStyle=1;fontSize=12;" parent="bCKFN4Ledh4VkEm4xxUK-22" vertex="1" connectable="0">
          <mxGeometry x="-0.1467" y="-3" relative="1" as="geometry">
            <mxPoint y="-13" as="offset" />
          </mxGeometry>
        </mxCell>
        <mxCell id="bCKFN4Ledh4VkEm4xxUK-24" value="" style="endArrow=classic;html=1;rounded=0;" parent="1" edge="1">
          <mxGeometry relative="1" as="geometry">
            <mxPoint x="518" y="509" as="sourcePoint" />
            <mxPoint x="618" y="509" as="targetPoint" />
          </mxGeometry>
        </mxCell>
        <mxCell id="bCKFN4Ledh4VkEm4xxUK-25" value="xfer_data" style="edgeLabel;html=1;align=center;verticalAlign=middle;resizable=0;points=[];fontStyle=1;fontSize=12;" parent="bCKFN4Ledh4VkEm4xxUK-24" vertex="1" connectable="0">
          <mxGeometry x="-0.1467" y="-3" relative="1" as="geometry">
            <mxPoint y="-13" as="offset" />
          </mxGeometry>
        </mxCell>
        <mxCell id="bCKFN4Ledh4VkEm4xxUK-26" value="" style="endArrow=classic;html=1;rounded=0;" parent="1" edge="1">
          <mxGeometry relative="1" as="geometry">
            <mxPoint x="518" y="550" as="sourcePoint" />
            <mxPoint x="618" y="550" as="targetPoint" />
          </mxGeometry>
        </mxCell>
        <mxCell id="bCKFN4Ledh4VkEm4xxUK-27" value="end_of_packet" style="edgeLabel;html=1;align=center;verticalAlign=middle;resizable=0;points=[];fontStyle=1;fontSize=12;" parent="bCKFN4Ledh4VkEm4xxUK-26" vertex="1" connectable="0">
          <mxGeometry x="-0.1467" y="-3" relative="1" as="geometry">
            <mxPoint y="-13" as="offset" />
          </mxGeometry>
        </mxCell>
        <mxCell id="bCKFN4Ledh4VkEm4xxUK-28" value="" style="endArrow=classic;html=1;rounded=0;" parent="1" edge="1">
          <mxGeometry relative="1" as="geometry">
            <mxPoint x="518" y="588" as="sourcePoint" />
            <mxPoint x="618" y="588" as="targetPoint" />
          </mxGeometry>
        </mxCell>
        <mxCell id="bCKFN4Ledh4VkEm4xxUK-29" value="match_enable" style="edgeLabel;html=1;align=center;verticalAlign=middle;resizable=0;points=[];fontStyle=1;fontSize=12;" parent="bCKFN4Ledh4VkEm4xxUK-28" vertex="1" connectable="0">
          <mxGeometry x="-0.1467" y="-3" relative="1" as="geometry">
            <mxPoint y="-13" as="offset" />
          </mxGeometry>
        </mxCell>
        <mxCell id="bCKFN4Ledh4VkEm4xxUK-30" value="" style="endArrow=classic;html=1;rounded=0;" parent="1" edge="1">
          <mxGeometry relative="1" as="geometry">
            <mxPoint x="518" y="630" as="sourcePoint" />
            <mxPoint x="618" y="630" as="targetPoint" />
          </mxGeometry>
        </mxCell>
        <mxCell id="bCKFN4Ledh4VkEm4xxUK-31" value="new_dest_port" style="edgeLabel;html=1;align=center;verticalAlign=middle;resizable=0;points=[];fontStyle=1;fontSize=12;" parent="bCKFN4Ledh4VkEm4xxUK-30" vertex="1" connectable="0">
          <mxGeometry x="-0.1467" y="-3" relative="1" as="geometry">
            <mxPoint y="-13" as="offset" />
          </mxGeometry>
        </mxCell>
        <mxCell id="bCKFN4Ledh4VkEm4xxUK-32" value="" style="endArrow=classic;html=1;rounded=0;" parent="1" edge="1">
          <mxGeometry relative="1" as="geometry">
            <mxPoint x="518" y="670" as="sourcePoint" />
            <mxPoint x="618" y="670" as="targetPoint" />
          </mxGeometry>
        </mxCell>
        <mxCell id="bCKFN4Ledh4VkEm4xxUK-33" value="new_length" style="edgeLabel;html=1;align=center;verticalAlign=middle;resizable=0;points=[];fontStyle=1;fontSize=12;" parent="bCKFN4Ledh4VkEm4xxUK-32" vertex="1" connectable="0">
          <mxGeometry x="-0.1467" y="-3" relative="1" as="geometry">
            <mxPoint y="-13" as="offset" />
          </mxGeometry>
        </mxCell>
      </root>
    </mxGraphModel>
  </diagram>
  <diagram id="rDCKDCr1eZ8_tOZVibxv" name="port_wr_sram_matcher">
    <mxGraphModel dx="1030" dy="519" grid="0" gridSize="10" guides="1" tooltips="1" connect="1" arrows="1" fold="1" page="1" pageScale="1" pageWidth="827" pageHeight="1169" math="0" shadow="0">
      <root>
        <mxCell id="0" />
        <mxCell id="1" parent="0" />
        <mxCell id="rVHXStXFABeKMufO-ygl-1" value="&lt;span style=&quot;font-size: 20px;&quot;&gt;&lt;b&gt;port_wr_sram_matcher&lt;/b&gt;&lt;/span&gt;" style="rounded=1;whiteSpace=wrap;html=1;" parent="1" vertex="1">
          <mxGeometry x="271" y="337" width="259" height="370" as="geometry" />
        </mxCell>
        <mxCell id="rVHXStXFABeKMufO-ygl-2" value="" style="endArrow=classic;html=1;rounded=0;" parent="1" edge="1">
          <mxGeometry relative="1" as="geometry">
            <mxPoint x="170" y="399" as="sourcePoint" />
            <mxPoint x="270" y="399" as="targetPoint" />
          </mxGeometry>
        </mxCell>
        <mxCell id="rVHXStXFABeKMufO-ygl-3" value="clk" style="edgeLabel;html=1;align=center;verticalAlign=middle;resizable=0;points=[];fontStyle=1;fontSize=12;" parent="rVHXStXFABeKMufO-ygl-2" vertex="1" connectable="0">
          <mxGeometry x="-0.1467" y="-3" relative="1" as="geometry">
            <mxPoint y="-13" as="offset" />
          </mxGeometry>
        </mxCell>
        <mxCell id="rVHXStXFABeKMufO-ygl-4" value="" style="endArrow=classic;html=1;rounded=0;" parent="1" edge="1">
          <mxGeometry relative="1" as="geometry">
            <mxPoint x="170" y="439" as="sourcePoint" />
            <mxPoint x="270" y="439" as="targetPoint" />
          </mxGeometry>
        </mxCell>
        <mxCell id="rVHXStXFABeKMufO-ygl-5" value="rst_n" style="edgeLabel;html=1;align=center;verticalAlign=middle;resizable=0;points=[];fontStyle=1;fontSize=12;" parent="rVHXStXFABeKMufO-ygl-4" vertex="1" connectable="0">
          <mxGeometry x="-0.1467" y="-3" relative="1" as="geometry">
            <mxPoint y="-13" as="offset" />
          </mxGeometry>
        </mxCell>
        <mxCell id="rVHXStXFABeKMufO-ygl-6" value="" style="endArrow=classic;html=1;rounded=0;" parent="1" edge="1">
          <mxGeometry relative="1" as="geometry">
            <mxPoint x="170" y="479" as="sourcePoint" />
            <mxPoint x="270" y="479" as="targetPoint" />
          </mxGeometry>
        </mxCell>
        <mxCell id="rVHXStXFABeKMufO-ygl-7" value="match_threshold" style="edgeLabel;html=1;align=center;verticalAlign=middle;resizable=0;points=[];fontStyle=1;fontSize=12;" parent="rVHXStXFABeKMufO-ygl-6" vertex="1" connectable="0">
          <mxGeometry x="-0.1467" y="-3" relative="1" as="geometry">
            <mxPoint y="-13" as="offset" />
          </mxGeometry>
        </mxCell>
        <mxCell id="rVHXStXFABeKMufO-ygl-8" value="" style="endArrow=classic;html=1;rounded=0;" parent="1" edge="1">
          <mxGeometry relative="1" as="geometry">
            <mxPoint x="170" y="519" as="sourcePoint" />
            <mxPoint x="270" y="519" as="targetPoint" />
          </mxGeometry>
        </mxCell>
        <mxCell id="rVHXStXFABeKMufO-ygl-9" value="new_length" style="edgeLabel;html=1;align=center;verticalAlign=middle;resizable=0;points=[];fontStyle=1;fontSize=12;" parent="rVHXStXFABeKMufO-ygl-8" vertex="1" connectable="0">
          <mxGeometry x="-0.1467" y="-3" relative="1" as="geometry">
            <mxPoint y="-13" as="offset" />
          </mxGeometry>
        </mxCell>
        <mxCell id="rVHXStXFABeKMufO-ygl-10" value="" style="endArrow=classic;html=1;rounded=0;" parent="1" edge="1">
          <mxGeometry relative="1" as="geometry">
            <mxPoint x="170" y="560" as="sourcePoint" />
            <mxPoint x="270" y="560" as="targetPoint" />
          </mxGeometry>
        </mxCell>
        <mxCell id="rVHXStXFABeKMufO-ygl-11" value="match_enable" style="edgeLabel;html=1;align=center;verticalAlign=middle;resizable=0;points=[];fontStyle=1;fontSize=12;" parent="rVHXStXFABeKMufO-ygl-10" vertex="1" connectable="0">
          <mxGeometry x="-0.1467" y="-3" relative="1" as="geometry">
            <mxPoint y="-13" as="offset" />
          </mxGeometry>
        </mxCell>
        <mxCell id="rVHXStXFABeKMufO-ygl-12" value="" style="endArrow=classic;html=1;rounded=0;" parent="1" edge="1">
          <mxGeometry relative="1" as="geometry">
            <mxPoint x="170" y="600" as="sourcePoint" />
            <mxPoint x="270" y="600" as="targetPoint" />
          </mxGeometry>
        </mxCell>
        <mxCell id="rVHXStXFABeKMufO-ygl-13" value="matching_sram" style="edgeLabel;html=1;align=center;verticalAlign=middle;resizable=0;points=[];fontStyle=1;fontSize=12;" parent="rVHXStXFABeKMufO-ygl-12" vertex="1" connectable="0">
          <mxGeometry x="-0.1467" y="-3" relative="1" as="geometry">
            <mxPoint y="-13" as="offset" />
          </mxGeometry>
        </mxCell>
        <mxCell id="rVHXStXFABeKMufO-ygl-14" value="" style="endArrow=classic;html=1;rounded=0;" parent="1" edge="1">
          <mxGeometry relative="1" as="geometry">
            <mxPoint x="170" y="640" as="sourcePoint" />
            <mxPoint x="270" y="640" as="targetPoint" />
          </mxGeometry>
        </mxCell>
        <mxCell id="rVHXStXFABeKMufO-ygl-15" value="accessible" style="edgeLabel;html=1;align=center;verticalAlign=middle;resizable=0;points=[];fontStyle=1;fontSize=12;" parent="rVHXStXFABeKMufO-ygl-14" vertex="1" connectable="0">
          <mxGeometry x="-0.1467" y="-3" relative="1" as="geometry">
            <mxPoint y="-13" as="offset" />
          </mxGeometry>
        </mxCell>
        <mxCell id="rVHXStXFABeKMufO-ygl-20" value="" style="endArrow=classic;html=1;rounded=0;" parent="1" edge="1">
          <mxGeometry relative="1" as="geometry">
            <mxPoint x="529" y="490" as="sourcePoint" />
            <mxPoint x="659" y="490" as="targetPoint" />
          </mxGeometry>
        </mxCell>
        <mxCell id="rVHXStXFABeKMufO-ygl-21" value="match_suc" style="edgeLabel;html=1;align=center;verticalAlign=middle;resizable=0;points=[];fontStyle=1;fontSize=12;" parent="rVHXStXFABeKMufO-ygl-20" vertex="1" connectable="0">
          <mxGeometry x="-0.1467" y="-3" relative="1" as="geometry">
            <mxPoint x="4" y="-13" as="offset" />
          </mxGeometry>
        </mxCell>
        <mxCell id="rVHXStXFABeKMufO-ygl-22" value="" style="endArrow=classic;html=1;rounded=0;" parent="1" edge="1">
          <mxGeometry relative="1" as="geometry">
            <mxPoint x="529" y="529" as="sourcePoint" />
            <mxPoint x="659" y="529" as="targetPoint" />
          </mxGeometry>
        </mxCell>
        <mxCell id="rVHXStXFABeKMufO-ygl-23" value="matching_best_sram" style="edgeLabel;html=1;align=center;verticalAlign=middle;resizable=0;points=[];fontStyle=1;fontSize=12;" parent="rVHXStXFABeKMufO-ygl-22" vertex="1" connectable="0">
          <mxGeometry x="-0.1467" y="-3" relative="1" as="geometry">
            <mxPoint x="11" y="-15" as="offset" />
          </mxGeometry>
        </mxCell>
        <mxCell id="rVHXStXFABeKMufO-ygl-24" value="" style="endArrow=classic;html=1;rounded=0;" parent="1" edge="1">
          <mxGeometry relative="1" as="geometry">
            <mxPoint x="529" y="570" as="sourcePoint" />
            <mxPoint x="659" y="570" as="targetPoint" />
          </mxGeometry>
        </mxCell>
        <mxCell id="rVHXStXFABeKMufO-ygl-25" value="update_matched_sram" style="edgeLabel;html=1;align=center;verticalAlign=middle;resizable=0;points=[];fontStyle=1;fontSize=12;" parent="rVHXStXFABeKMufO-ygl-24" vertex="1" connectable="0">
          <mxGeometry x="-0.1467" y="-3" relative="1" as="geometry">
            <mxPoint x="15" y="-15" as="offset" />
          </mxGeometry>
        </mxCell>
        <mxCell id="P-Z7yBs8pbg_egurUk_E-1" value="" style="endArrow=classic;html=1;rounded=0;entryX=0.103;entryY=0;entryDx=0;entryDy=0;entryPerimeter=0;" parent="1" edge="1">
          <mxGeometry relative="1" as="geometry">
            <mxPoint x="360" y="257" as="sourcePoint" />
            <mxPoint x="359.9999999999999" y="337" as="targetPoint" />
          </mxGeometry>
        </mxCell>
        <mxCell id="P-Z7yBs8pbg_egurUk_E-2" value="free_space&lt;span style=&quot;white-space: pre;&quot;&gt;&#x9;&lt;/span&gt;" style="edgeLabel;html=1;align=center;verticalAlign=middle;resizable=0;points=[];fontStyle=1;fontSize=12;" parent="P-Z7yBs8pbg_egurUk_E-1" vertex="1" connectable="0">
          <mxGeometry x="-0.1467" y="-3" relative="1" as="geometry">
            <mxPoint x="3" y="6" as="offset" />
          </mxGeometry>
        </mxCell>
        <mxCell id="P-Z7yBs8pbg_egurUk_E-9" value="" style="endArrow=classic;html=1;rounded=0;entryX=0.103;entryY=0;entryDx=0;entryDy=0;entryPerimeter=0;" parent="1" edge="1">
          <mxGeometry relative="1" as="geometry">
            <mxPoint x="440" y="257" as="sourcePoint" />
            <mxPoint x="439.9999999999999" y="337" as="targetPoint" />
          </mxGeometry>
        </mxCell>
        <mxCell id="P-Z7yBs8pbg_egurUk_E-10" value="packet_amount" style="edgeLabel;html=1;align=center;verticalAlign=middle;resizable=0;points=[];fontStyle=1;fontSize=12;" parent="P-Z7yBs8pbg_egurUk_E-9" vertex="1" connectable="0">
          <mxGeometry x="-0.1467" y="-3" relative="1" as="geometry">
            <mxPoint x="3" y="6" as="offset" />
          </mxGeometry>
        </mxCell>
      </root>
    </mxGraphModel>
  </diagram>
  <diagram id="gfn88NQFd2VBFfNbxcnh" name="sram_interface">
    <mxGraphModel dx="884" dy="748" grid="1" gridSize="10" guides="1" tooltips="1" connect="1" arrows="1" fold="1" page="1" pageScale="1" pageWidth="827" pageHeight="1169" math="0" shadow="0">
      <root>
        <mxCell id="0" />
        <mxCell id="1" parent="0" />
        <mxCell id="f9PS7Bxdu4uu2BeW52YA-1" value="&lt;span style=&quot;font-size: 20px;&quot;&gt;&lt;b&gt;sram_interface&lt;/b&gt;&lt;/span&gt;" style="rounded=1;whiteSpace=wrap;html=1;" parent="1" vertex="1">
          <mxGeometry x="269" y="389" width="290" height="400" as="geometry" />
        </mxCell>
        <mxCell id="f9PS7Bxdu4uu2BeW52YA-2" value="" style="endArrow=classic;html=1;rounded=0;" parent="1" edge="1">
          <mxGeometry relative="1" as="geometry">
            <mxPoint x="130" y="640" as="sourcePoint" />
            <mxPoint x="269" y="639.5" as="targetPoint" />
          </mxGeometry>
        </mxCell>
        <mxCell id="f9PS7Bxdu4uu2BeW52YA-3" value="concatenate_tail" style="edgeLabel;html=1;align=center;verticalAlign=middle;resizable=0;points=[];fontStyle=1;fontSize=12;" parent="f9PS7Bxdu4uu2BeW52YA-2" vertex="1" connectable="0">
          <mxGeometry x="-0.1467" y="-3" relative="1" as="geometry">
            <mxPoint x="2" y="-14" as="offset" />
          </mxGeometry>
        </mxCell>
        <mxCell id="f9PS7Bxdu4uu2BeW52YA-10" value="" style="endArrow=classic;html=1;rounded=0;" parent="1" edge="1">
          <mxGeometry relative="1" as="geometry">
            <mxPoint x="139" y="439.5" as="sourcePoint" />
            <mxPoint x="269" y="439" as="targetPoint" />
          </mxGeometry>
        </mxCell>
        <mxCell id="f9PS7Bxdu4uu2BeW52YA-11" value="wr_xfer_data_vld" style="edgeLabel;html=1;align=center;verticalAlign=middle;resizable=0;points=[];fontStyle=1;fontSize=12;" parent="f9PS7Bxdu4uu2BeW52YA-10" vertex="1" connectable="0">
          <mxGeometry x="-0.1467" y="-3" relative="1" as="geometry">
            <mxPoint x="4" y="-15" as="offset" />
          </mxGeometry>
        </mxCell>
        <mxCell id="f9PS7Bxdu4uu2BeW52YA-12" value="" style="endArrow=classic;html=1;rounded=0;" parent="1" edge="1">
          <mxGeometry relative="1" as="geometry">
            <mxPoint x="130" y="480" as="sourcePoint" />
            <mxPoint x="269" y="480.5" as="targetPoint" />
          </mxGeometry>
        </mxCell>
        <mxCell id="f9PS7Bxdu4uu2BeW52YA-13" value="wr_xfer_data" style="edgeLabel;html=1;align=center;verticalAlign=middle;resizable=0;points=[];fontStyle=1;fontSize=12;" parent="f9PS7Bxdu4uu2BeW52YA-12" vertex="1" connectable="0">
          <mxGeometry x="-0.1467" y="-3" relative="1" as="geometry">
            <mxPoint x="2" y="-15" as="offset" />
          </mxGeometry>
        </mxCell>
        <mxCell id="f9PS7Bxdu4uu2BeW52YA-14" value="" style="endArrow=classic;html=1;rounded=0;" parent="1" edge="1">
          <mxGeometry relative="1" as="geometry">
            <mxPoint x="130" y="520" as="sourcePoint" />
            <mxPoint x="269" y="520.5" as="targetPoint" />
          </mxGeometry>
        </mxCell>
        <mxCell id="f9PS7Bxdu4uu2BeW52YA-15" value="wr_end_of_packet" style="edgeLabel;html=1;align=center;verticalAlign=middle;resizable=0;points=[];fontStyle=1;fontSize=12;" parent="f9PS7Bxdu4uu2BeW52YA-14" vertex="1" connectable="0">
          <mxGeometry x="-0.1467" y="-3" relative="1" as="geometry">
            <mxPoint y="-15" as="offset" />
          </mxGeometry>
        </mxCell>
        <mxCell id="f9PS7Bxdu4uu2BeW52YA-16" value="" style="endArrow=classic;html=1;rounded=0;" parent="1" edge="1">
          <mxGeometry relative="1" as="geometry">
            <mxPoint x="130" y="560" as="sourcePoint" />
            <mxPoint x="269" y="560.5" as="targetPoint" />
          </mxGeometry>
        </mxCell>
        <mxCell id="f9PS7Bxdu4uu2BeW52YA-17" value="concatenate_enable" style="edgeLabel;html=1;align=center;verticalAlign=middle;resizable=0;points=[];fontStyle=1;fontSize=12;" parent="f9PS7Bxdu4uu2BeW52YA-16" vertex="1" connectable="0">
          <mxGeometry x="-0.1467" y="-3" relative="1" as="geometry">
            <mxPoint x="4" y="-15" as="offset" />
          </mxGeometry>
        </mxCell>
        <mxCell id="f9PS7Bxdu4uu2BeW52YA-34" value="" style="endArrow=classic;html=1;rounded=0;entryX=0.103;entryY=0;entryDx=0;entryDy=0;entryPerimeter=0;" parent="1" edge="1">
          <mxGeometry relative="1" as="geometry">
            <mxPoint x="325" y="309" as="sourcePoint" />
            <mxPoint x="324.9999999999999" y="389" as="targetPoint" />
          </mxGeometry>
        </mxCell>
        <mxCell id="gOU0G3TzonKfI7C1Ev8w-2" value="clk" style="edgeLabel;html=1;align=center;verticalAlign=middle;resizable=0;points=[];fontStyle=1;fontSize=12;" parent="f9PS7Bxdu4uu2BeW52YA-34" vertex="1" connectable="0">
          <mxGeometry x="-0.0417" y="2" relative="1" as="geometry">
            <mxPoint x="-2" as="offset" />
          </mxGeometry>
        </mxCell>
        <mxCell id="f9PS7Bxdu4uu2BeW52YA-36" value="" style="endArrow=classic;html=1;rounded=0;entryX=0.103;entryY=0;entryDx=0;entryDy=0;entryPerimeter=0;" parent="1" edge="1">
          <mxGeometry relative="1" as="geometry">
            <mxPoint x="385" y="309" as="sourcePoint" />
            <mxPoint x="384.9999999999999" y="389" as="targetPoint" />
          </mxGeometry>
        </mxCell>
        <mxCell id="f9PS7Bxdu4uu2BeW52YA-37" value="clk" style="edgeLabel;html=1;align=center;verticalAlign=middle;resizable=0;points=[];fontStyle=1;fontSize=12;" parent="f9PS7Bxdu4uu2BeW52YA-36" vertex="1" connectable="0">
          <mxGeometry x="-0.1467" y="-3" relative="1" as="geometry">
            <mxPoint x="3" y="6" as="offset" />
          </mxGeometry>
        </mxCell>
        <mxCell id="f9PS7Bxdu4uu2BeW52YA-38" value="&lt;span style=&quot;font-size: 12px; font-weight: 700;&quot;&gt;rst_n&lt;/span&gt;" style="edgeLabel;html=1;align=center;verticalAlign=middle;resizable=0;points=[];" parent="f9PS7Bxdu4uu2BeW52YA-36" vertex="1" connectable="0">
          <mxGeometry x="-0.025" y="2" relative="1" as="geometry">
            <mxPoint as="offset" />
          </mxGeometry>
        </mxCell>
        <mxCell id="f9PS7Bxdu4uu2BeW52YA-39" value="" style="endArrow=classic;html=1;rounded=0;entryX=0.103;entryY=0;entryDx=0;entryDy=0;entryPerimeter=0;" parent="1" edge="1">
          <mxGeometry relative="1" as="geometry">
            <mxPoint x="445" y="309" as="sourcePoint" />
            <mxPoint x="444.9999999999999" y="389" as="targetPoint" />
          </mxGeometry>
        </mxCell>
        <mxCell id="f9PS7Bxdu4uu2BeW52YA-40" value="clk" style="edgeLabel;html=1;align=center;verticalAlign=middle;resizable=0;points=[];fontStyle=1;fontSize=12;" parent="f9PS7Bxdu4uu2BeW52YA-39" vertex="1" connectable="0">
          <mxGeometry x="-0.1467" y="-3" relative="1" as="geometry">
            <mxPoint x="3" y="6" as="offset" />
          </mxGeometry>
        </mxCell>
        <mxCell id="f9PS7Bxdu4uu2BeW52YA-41" value="&lt;b&gt;&lt;font style=&quot;font-size: 11px;&quot;&gt;time_stamp&lt;/font&gt;&lt;/b&gt;" style="edgeLabel;html=1;align=center;verticalAlign=middle;resizable=0;points=[];" parent="f9PS7Bxdu4uu2BeW52YA-39" vertex="1" connectable="0">
          <mxGeometry x="-0.025" y="2" relative="1" as="geometry">
            <mxPoint as="offset" />
          </mxGeometry>
        </mxCell>
        <mxCell id="f9PS7Bxdu4uu2BeW52YA-42" value="" style="endArrow=classic;html=1;rounded=0;entryX=0.103;entryY=0;entryDx=0;entryDy=0;entryPerimeter=0;" parent="1" edge="1">
          <mxGeometry relative="1" as="geometry">
            <mxPoint x="505" y="309" as="sourcePoint" />
            <mxPoint x="504.9999999999999" y="389" as="targetPoint" />
          </mxGeometry>
        </mxCell>
        <mxCell id="f9PS7Bxdu4uu2BeW52YA-44" value="&lt;b&gt;&lt;font style=&quot;font-size: 10px;&quot;&gt;SRAM_IDX&lt;/font&gt;&lt;/b&gt;" style="edgeLabel;html=1;align=center;verticalAlign=middle;resizable=0;points=[];" parent="f9PS7Bxdu4uu2BeW52YA-42" vertex="1" connectable="0">
          <mxGeometry x="-0.025" y="2" relative="1" as="geometry">
            <mxPoint y="1" as="offset" />
          </mxGeometry>
        </mxCell>
        <mxCell id="gOU0G3TzonKfI7C1Ev8w-6" value="" style="endArrow=classic;html=1;rounded=0;" parent="1" edge="1">
          <mxGeometry relative="1" as="geometry">
            <mxPoint x="130" y="600" as="sourcePoint" />
            <mxPoint x="269" y="600.5" as="targetPoint" />
          </mxGeometry>
        </mxCell>
        <mxCell id="gOU0G3TzonKfI7C1Ev8w-7" value="concatenate_head" style="edgeLabel;html=1;align=center;verticalAlign=middle;resizable=0;points=[];fontStyle=1;fontSize=12;" parent="gOU0G3TzonKfI7C1Ev8w-6" vertex="1" connectable="0">
          <mxGeometry x="-0.1467" y="-3" relative="1" as="geometry">
            <mxPoint x="3" y="-15" as="offset" />
          </mxGeometry>
        </mxCell>
        <mxCell id="gOU0G3TzonKfI7C1Ev8w-8" value="" style="endArrow=classic;html=1;rounded=0;" parent="1" edge="1">
          <mxGeometry relative="1" as="geometry">
            <mxPoint x="130" y="680" as="sourcePoint" />
            <mxPoint x="269" y="680.5" as="targetPoint" />
          </mxGeometry>
        </mxCell>
        <mxCell id="gOU0G3TzonKfI7C1Ev8w-9" value="rd_page_down" style="edgeLabel;html=1;align=center;verticalAlign=middle;resizable=0;points=[];fontStyle=1;fontSize=12;" parent="gOU0G3TzonKfI7C1Ev8w-8" vertex="1" connectable="0">
          <mxGeometry x="-0.1467" y="-3" relative="1" as="geometry">
            <mxPoint x="2" y="-15" as="offset" />
          </mxGeometry>
        </mxCell>
        <mxCell id="gOU0G3TzonKfI7C1Ev8w-10" value="" style="endArrow=classic;html=1;rounded=0;" parent="1" edge="1">
          <mxGeometry relative="1" as="geometry">
            <mxPoint x="130" y="720" as="sourcePoint" />
            <mxPoint x="269" y="720.5" as="targetPoint" />
          </mxGeometry>
        </mxCell>
        <mxCell id="gOU0G3TzonKfI7C1Ev8w-11" value="rd_page" style="edgeLabel;html=1;align=center;verticalAlign=middle;resizable=0;points=[];fontStyle=1;fontSize=12;" parent="gOU0G3TzonKfI7C1Ev8w-10" vertex="1" connectable="0">
          <mxGeometry x="-0.1467" y="-3" relative="1" as="geometry">
            <mxPoint x="5" y="-15" as="offset" />
          </mxGeometry>
        </mxCell>
        <mxCell id="gOU0G3TzonKfI7C1Ev8w-12" value="" style="endArrow=classic;html=1;rounded=0;" parent="1" edge="1">
          <mxGeometry relative="1" as="geometry">
            <mxPoint x="559" y="638.5" as="sourcePoint" />
            <mxPoint x="740" y="639" as="targetPoint" />
          </mxGeometry>
        </mxCell>
        <mxCell id="gOU0G3TzonKfI7C1Ev8w-13" value="wr_packet_join_time_stamp" style="edgeLabel;html=1;align=center;verticalAlign=middle;resizable=0;points=[];fontStyle=1;fontSize=12;" parent="gOU0G3TzonKfI7C1Ev8w-12" vertex="1" connectable="0">
          <mxGeometry x="-0.1467" y="-3" relative="1" as="geometry">
            <mxPoint x="12" y="-16" as="offset" />
          </mxGeometry>
        </mxCell>
        <mxCell id="gOU0G3TzonKfI7C1Ev8w-14" value="" style="endArrow=classic;html=1;rounded=0;" parent="1" edge="1">
          <mxGeometry relative="1" as="geometry">
            <mxPoint x="559" y="439" as="sourcePoint" />
            <mxPoint x="740" y="439" as="targetPoint" />
            <Array as="points" />
          </mxGeometry>
        </mxCell>
        <mxCell id="gOU0G3TzonKfI7C1Ev8w-15" value="wr_packet_dest_port" style="edgeLabel;html=1;align=center;verticalAlign=middle;resizable=0;points=[];fontStyle=1;fontSize=12;" parent="gOU0G3TzonKfI7C1Ev8w-14" vertex="1" connectable="0">
          <mxGeometry x="-0.1467" y="-3" relative="1" as="geometry">
            <mxPoint x="14" y="-16" as="offset" />
          </mxGeometry>
        </mxCell>
        <mxCell id="gOU0G3TzonKfI7C1Ev8w-16" value="" style="endArrow=classic;html=1;rounded=0;" parent="1" edge="1">
          <mxGeometry relative="1" as="geometry">
            <mxPoint x="559" y="479" as="sourcePoint" />
            <mxPoint x="740" y="479" as="targetPoint" />
          </mxGeometry>
        </mxCell>
        <mxCell id="gOU0G3TzonKfI7C1Ev8w-17" value="wr_packet_prior" style="edgeLabel;html=1;align=center;verticalAlign=middle;resizable=0;points=[];fontStyle=1;fontSize=12;" parent="gOU0G3TzonKfI7C1Ev8w-16" vertex="1" connectable="0">
          <mxGeometry x="-0.1467" y="-3" relative="1" as="geometry">
            <mxPoint x="14" y="-16" as="offset" />
          </mxGeometry>
        </mxCell>
        <mxCell id="gOU0G3TzonKfI7C1Ev8w-18" value="" style="endArrow=classic;html=1;rounded=0;" parent="1" edge="1">
          <mxGeometry relative="1" as="geometry">
            <mxPoint x="559" y="520" as="sourcePoint" />
            <mxPoint x="740" y="520" as="targetPoint" />
          </mxGeometry>
        </mxCell>
        <mxCell id="gOU0G3TzonKfI7C1Ev8w-19" value="wr_packet_head_addr" style="edgeLabel;html=1;align=center;verticalAlign=middle;resizable=0;points=[];fontStyle=1;fontSize=12;" parent="gOU0G3TzonKfI7C1Ev8w-18" vertex="1" connectable="0">
          <mxGeometry x="-0.1467" y="-3" relative="1" as="geometry">
            <mxPoint x="14" y="-16" as="offset" />
          </mxGeometry>
        </mxCell>
        <mxCell id="gOU0G3TzonKfI7C1Ev8w-20" value="" style="endArrow=classic;html=1;rounded=0;" parent="1" edge="1">
          <mxGeometry relative="1" as="geometry">
            <mxPoint x="559" y="559.5" as="sourcePoint" />
            <mxPoint x="740" y="560" as="targetPoint" />
          </mxGeometry>
        </mxCell>
        <mxCell id="gOU0G3TzonKfI7C1Ev8w-21" value="wr_packet_tail_addr" style="edgeLabel;html=1;align=center;verticalAlign=middle;resizable=0;points=[];fontStyle=1;fontSize=12;" parent="gOU0G3TzonKfI7C1Ev8w-20" vertex="1" connectable="0">
          <mxGeometry x="-0.1467" y="-3" relative="1" as="geometry">
            <mxPoint x="14" y="-16" as="offset" />
          </mxGeometry>
        </mxCell>
        <mxCell id="gOU0G3TzonKfI7C1Ev8w-22" value="" style="endArrow=classic;html=1;rounded=0;" parent="1" edge="1">
          <mxGeometry relative="1" as="geometry">
            <mxPoint x="559" y="599.5" as="sourcePoint" />
            <mxPoint x="740" y="599" as="targetPoint" />
          </mxGeometry>
        </mxCell>
        <mxCell id="gOU0G3TzonKfI7C1Ev8w-23" value="wr_packet_join_request" style="edgeLabel;html=1;align=center;verticalAlign=middle;resizable=0;points=[];fontStyle=1;fontSize=12;" parent="gOU0G3TzonKfI7C1Ev8w-22" vertex="1" connectable="0">
          <mxGeometry x="-0.1467" y="-3" relative="1" as="geometry">
            <mxPoint x="14" y="-17" as="offset" />
          </mxGeometry>
        </mxCell>
        <mxCell id="gOU0G3TzonKfI7C1Ev8w-24" value="" style="endArrow=classic;html=1;rounded=0;" parent="1" edge="1">
          <mxGeometry relative="1" as="geometry">
            <mxPoint x="559" y="678.5" as="sourcePoint" />
            <mxPoint x="740" y="679" as="targetPoint" />
          </mxGeometry>
        </mxCell>
        <mxCell id="gOU0G3TzonKfI7C1Ev8w-25" value="rd_xfer_data_vld" style="edgeLabel;html=1;align=center;verticalAlign=middle;resizable=0;points=[];fontStyle=1;fontSize=12;" parent="gOU0G3TzonKfI7C1Ev8w-24" vertex="1" connectable="0">
          <mxGeometry x="-0.1467" y="-3" relative="1" as="geometry">
            <mxPoint x="14" y="-16" as="offset" />
          </mxGeometry>
        </mxCell>
        <mxCell id="gOU0G3TzonKfI7C1Ev8w-26" value="" style="endArrow=classic;html=1;rounded=0;" parent="1" edge="1">
          <mxGeometry relative="1" as="geometry">
            <mxPoint x="559" y="719.5" as="sourcePoint" />
            <mxPoint x="740" y="719" as="targetPoint" />
          </mxGeometry>
        </mxCell>
        <mxCell id="gOU0G3TzonKfI7C1Ev8w-27" value="rd_xfer_data" style="edgeLabel;html=1;align=center;verticalAlign=middle;resizable=0;points=[];fontStyle=1;fontSize=12;" parent="gOU0G3TzonKfI7C1Ev8w-26" vertex="1" connectable="0">
          <mxGeometry x="-0.1467" y="-3" relative="1" as="geometry">
            <mxPoint x="14" y="-16" as="offset" />
          </mxGeometry>
        </mxCell>
        <mxCell id="gOU0G3TzonKfI7C1Ev8w-29" value="" style="endArrow=classic;html=1;rounded=0;entryX=0.103;entryY=0;entryDx=0;entryDy=0;entryPerimeter=0;" parent="1" edge="1">
          <mxGeometry relative="1" as="geometry">
            <mxPoint x="338" y="789" as="sourcePoint" />
            <mxPoint x="337.9999999999999" y="869" as="targetPoint" />
          </mxGeometry>
        </mxCell>
        <mxCell id="gOU0G3TzonKfI7C1Ev8w-30" value="rd_next_page" style="edgeLabel;html=1;align=center;verticalAlign=middle;resizable=0;points=[];fontStyle=1;fontSize=12;" parent="gOU0G3TzonKfI7C1Ev8w-29" vertex="1" connectable="0">
          <mxGeometry x="-0.0417" y="2" relative="1" as="geometry">
            <mxPoint x="-2" as="offset" />
          </mxGeometry>
        </mxCell>
        <mxCell id="gOU0G3TzonKfI7C1Ev8w-31" value="" style="endArrow=classic;html=1;rounded=0;entryX=0.103;entryY=0;entryDx=0;entryDy=0;entryPerimeter=0;" parent="1" edge="1">
          <mxGeometry relative="1" as="geometry">
            <mxPoint x="419" y="789" as="sourcePoint" />
            <mxPoint x="418.9999999999999" y="869" as="targetPoint" />
          </mxGeometry>
        </mxCell>
        <mxCell id="gOU0G3TzonKfI7C1Ev8w-32" value="clk" style="edgeLabel;html=1;align=center;verticalAlign=middle;resizable=0;points=[];fontStyle=1;fontSize=12;" parent="gOU0G3TzonKfI7C1Ev8w-31" vertex="1" connectable="0">
          <mxGeometry x="-0.1467" y="-3" relative="1" as="geometry">
            <mxPoint x="3" y="6" as="offset" />
          </mxGeometry>
        </mxCell>
        <mxCell id="gOU0G3TzonKfI7C1Ev8w-33" value="&lt;span style=&quot;font-size: 12px;&quot;&gt;&lt;b&gt;rd_ecc_code&lt;/b&gt;&lt;/span&gt;" style="edgeLabel;html=1;align=center;verticalAlign=middle;resizable=0;points=[];" parent="gOU0G3TzonKfI7C1Ev8w-31" vertex="1" connectable="0">
          <mxGeometry x="-0.025" y="2" relative="1" as="geometry">
            <mxPoint as="offset" />
          </mxGeometry>
        </mxCell>
        <mxCell id="gOU0G3TzonKfI7C1Ev8w-37" value="" style="endArrow=classic;html=1;rounded=0;entryX=0.103;entryY=0;entryDx=0;entryDy=0;entryPerimeter=0;" parent="1" edge="1">
          <mxGeometry relative="1" as="geometry">
            <mxPoint x="498" y="789" as="sourcePoint" />
            <mxPoint x="497.9999999999999" y="869" as="targetPoint" />
          </mxGeometry>
        </mxCell>
        <mxCell id="gOU0G3TzonKfI7C1Ev8w-38" value="clk" style="edgeLabel;html=1;align=center;verticalAlign=middle;resizable=0;points=[];fontStyle=1;fontSize=12;" parent="gOU0G3TzonKfI7C1Ev8w-37" vertex="1" connectable="0">
          <mxGeometry x="-0.1467" y="-3" relative="1" as="geometry">
            <mxPoint x="3" y="6" as="offset" />
          </mxGeometry>
        </mxCell>
        <mxCell id="gOU0G3TzonKfI7C1Ev8w-39" value="&lt;span style=&quot;font-size: 12px;&quot;&gt;&lt;b&gt;free_space&lt;/b&gt;&lt;/span&gt;" style="edgeLabel;html=1;align=center;verticalAlign=middle;resizable=0;points=[];" parent="gOU0G3TzonKfI7C1Ev8w-37" vertex="1" connectable="0">
          <mxGeometry x="-0.025" y="2" relative="1" as="geometry">
            <mxPoint as="offset" />
          </mxGeometry>
        </mxCell>
      </root>
    </mxGraphModel>
  </diagram>
  <diagram id="otnFxJdDOuSPvHPnywhw" name="sram">
    <mxGraphModel dx="880" dy="684" grid="1" gridSize="10" guides="1" tooltips="1" connect="1" arrows="1" fold="1" page="1" pageScale="1" pageWidth="827" pageHeight="1169" math="0" shadow="0">
      <root>
        <mxCell id="0" />
        <mxCell id="1" parent="0" />
        <mxCell id="W1l1OSmjGkSxLuI9q76--1" value="&lt;span style=&quot;font-size: 20px;&quot;&gt;&lt;b&gt;sram&lt;/b&gt;&lt;/span&gt;" style="rounded=1;whiteSpace=wrap;html=1;" parent="1" vertex="1">
          <mxGeometry x="300" y="360" width="220" height="320" as="geometry" />
        </mxCell>
        <mxCell id="W1l1OSmjGkSxLuI9q76--2" value="" style="endArrow=classic;html=1;rounded=0;" parent="1" edge="1">
          <mxGeometry relative="1" as="geometry">
            <mxPoint x="199" y="399" as="sourcePoint" />
            <mxPoint x="299" y="399" as="targetPoint" />
          </mxGeometry>
        </mxCell>
        <mxCell id="W1l1OSmjGkSxLuI9q76--3" value="clk" style="edgeLabel;html=1;align=center;verticalAlign=middle;resizable=0;points=[];fontStyle=1;fontSize=12;" parent="W1l1OSmjGkSxLuI9q76--2" vertex="1" connectable="0">
          <mxGeometry x="-0.1467" y="-3" relative="1" as="geometry">
            <mxPoint y="-13" as="offset" />
          </mxGeometry>
        </mxCell>
        <mxCell id="W1l1OSmjGkSxLuI9q76--4" value="" style="endArrow=classic;html=1;rounded=0;" parent="1" edge="1">
          <mxGeometry relative="1" as="geometry">
            <mxPoint x="199" y="439" as="sourcePoint" />
            <mxPoint x="299" y="439" as="targetPoint" />
          </mxGeometry>
        </mxCell>
        <mxCell id="W1l1OSmjGkSxLuI9q76--5" value="rst_n" style="edgeLabel;html=1;align=center;verticalAlign=middle;resizable=0;points=[];fontStyle=1;fontSize=12;" parent="W1l1OSmjGkSxLuI9q76--4" vertex="1" connectable="0">
          <mxGeometry x="-0.1467" y="-3" relative="1" as="geometry">
            <mxPoint y="-13" as="offset" />
          </mxGeometry>
        </mxCell>
        <mxCell id="W1l1OSmjGkSxLuI9q76--6" value="" style="endArrow=classic;html=1;rounded=0;" parent="1" edge="1">
          <mxGeometry relative="1" as="geometry">
            <mxPoint x="199" y="479" as="sourcePoint" />
            <mxPoint x="299" y="479" as="targetPoint" />
          </mxGeometry>
        </mxCell>
        <mxCell id="W1l1OSmjGkSxLuI9q76--7" value="wr_en" style="edgeLabel;html=1;align=center;verticalAlign=middle;resizable=0;points=[];fontStyle=1;fontSize=12;" parent="W1l1OSmjGkSxLuI9q76--6" vertex="1" connectable="0">
          <mxGeometry x="-0.1467" y="-3" relative="1" as="geometry">
            <mxPoint y="-13" as="offset" />
          </mxGeometry>
        </mxCell>
        <mxCell id="W1l1OSmjGkSxLuI9q76--8" value="" style="endArrow=classic;html=1;rounded=0;" parent="1" edge="1">
          <mxGeometry relative="1" as="geometry">
            <mxPoint x="199" y="519" as="sourcePoint" />
            <mxPoint x="299" y="519" as="targetPoint" />
          </mxGeometry>
        </mxCell>
        <mxCell id="W1l1OSmjGkSxLuI9q76--9" value="wr_addr" style="edgeLabel;html=1;align=center;verticalAlign=middle;resizable=0;points=[];fontStyle=1;fontSize=12;" parent="W1l1OSmjGkSxLuI9q76--8" vertex="1" connectable="0">
          <mxGeometry x="-0.1467" y="-3" relative="1" as="geometry">
            <mxPoint y="-13" as="offset" />
          </mxGeometry>
        </mxCell>
        <mxCell id="W1l1OSmjGkSxLuI9q76--12" value="" style="endArrow=classic;html=1;rounded=0;" parent="1" edge="1">
          <mxGeometry relative="1" as="geometry">
            <mxPoint x="520" y="520" as="sourcePoint" />
            <mxPoint x="620" y="520" as="targetPoint" />
          </mxGeometry>
        </mxCell>
        <mxCell id="W1l1OSmjGkSxLuI9q76--13" value="dout" style="edgeLabel;html=1;align=center;verticalAlign=middle;resizable=0;points=[];fontStyle=1;fontSize=12;" parent="W1l1OSmjGkSxLuI9q76--12" vertex="1" connectable="0">
          <mxGeometry x="-0.1467" y="-3" relative="1" as="geometry">
            <mxPoint y="-13" as="offset" />
          </mxGeometry>
        </mxCell>
        <mxCell id="W1l1OSmjGkSxLuI9q76--16" value="" style="endArrow=classic;html=1;rounded=0;" parent="1" edge="1">
          <mxGeometry relative="1" as="geometry">
            <mxPoint x="199" y="559" as="sourcePoint" />
            <mxPoint x="299" y="559" as="targetPoint" />
          </mxGeometry>
        </mxCell>
        <mxCell id="W1l1OSmjGkSxLuI9q76--17" value="din" style="edgeLabel;html=1;align=center;verticalAlign=middle;resizable=0;points=[];fontStyle=1;fontSize=12;" parent="W1l1OSmjGkSxLuI9q76--16" vertex="1" connectable="0">
          <mxGeometry x="-0.1467" y="-3" relative="1" as="geometry">
            <mxPoint y="-13" as="offset" />
          </mxGeometry>
        </mxCell>
        <mxCell id="W1l1OSmjGkSxLuI9q76--18" value="" style="endArrow=classic;html=1;rounded=0;" parent="1" edge="1">
          <mxGeometry relative="1" as="geometry">
            <mxPoint x="199" y="599" as="sourcePoint" />
            <mxPoint x="299" y="599" as="targetPoint" />
          </mxGeometry>
        </mxCell>
        <mxCell id="W1l1OSmjGkSxLuI9q76--19" value="rd_en" style="edgeLabel;html=1;align=center;verticalAlign=middle;resizable=0;points=[];fontStyle=1;fontSize=12;" parent="W1l1OSmjGkSxLuI9q76--18" vertex="1" connectable="0">
          <mxGeometry x="-0.1467" y="-3" relative="1" as="geometry">
            <mxPoint y="-13" as="offset" />
          </mxGeometry>
        </mxCell>
        <mxCell id="W1l1OSmjGkSxLuI9q76--22" value="" style="endArrow=classic;html=1;rounded=0;" parent="1" edge="1">
          <mxGeometry relative="1" as="geometry">
            <mxPoint x="199" y="638" as="sourcePoint" />
            <mxPoint x="299" y="638" as="targetPoint" />
          </mxGeometry>
        </mxCell>
        <mxCell id="W1l1OSmjGkSxLuI9q76--23" value="rd_addr" style="edgeLabel;html=1;align=center;verticalAlign=middle;resizable=0;points=[];fontStyle=1;fontSize=12;" parent="W1l1OSmjGkSxLuI9q76--22" vertex="1" connectable="0">
          <mxGeometry x="-0.1467" y="-3" relative="1" as="geometry">
            <mxPoint y="-13" as="offset" />
          </mxGeometry>
        </mxCell>
      </root>
    </mxGraphModel>
  </diagram>
</mxfile>
